<?xml version="1.0" encoding="UTF-8" standalone="no"?>
<!-- Created with Inkscape (http://www.inkscape.org/) -->

<svg
   xmlns:dc="http://purl.org/dc/elements/1.1/"
   xmlns:cc="http://creativecommons.org/ns#"
   xmlns:rdf="http://www.w3.org/1999/02/22-rdf-syntax-ns#"
   xmlns:svg="http://www.w3.org/2000/svg"
   xmlns="http://www.w3.org/2000/svg"
   xmlns:sodipodi="http://sodipodi.sourceforge.net/DTD/sodipodi-0.dtd"
   xmlns:inkscape="http://www.inkscape.org/namespaces/inkscape"
   width="744.09448"
   height="1052.3622"
   id="svg4136"
   version="1.1"
   inkscape:version="0.91 r13725"
   viewBox="0 0 744.09448 1052.3622"
   sodipodi:docname="CTF.svg"
   inkscape:export-filename="C:\Users\pmgbe_000\git\game-development-coursera-exercises\Master\Producción\Game Concept Proposal\flags.png"
   inkscape:export-xdpi="200"
   inkscape:export-ydpi="200">
  <sodipodi:namedview
     id="base"
     pagecolor="#ffffff"
     bordercolor="#ffffff"
     borderopacity="0.0"
     inkscape:pageopacity="0.0"
     inkscape:pageshadow="0"
     inkscape:zoom="0.98994949"
     inkscape:cx="-382.55784"
     inkscape:cy="901.5951"
     inkscape:document-units="px"
     inkscape:current-layer="layer1"
     showgrid="false"
     inkscape:window-width="1920"
     inkscape:window-height="1017"
     inkscape:window-x="-8"
     inkscape:window-y="-8"
     inkscape:window-maximized="1" />
  <defs
     id="defs4138" />
  <metadata
     id="metadata4141">
    <rdf:RDF>
      <cc:Work
         rdf:about="">
        <dc:format>image/svg+xml</dc:format>
        <dc:type
           rdf:resource="http://purl.org/dc/dcmitype/StillImage" />
        <dc:title></dc:title>
      </cc:Work>
    </rdf:RDF>
  </metadata>
  <g
     id="layer1"
     inkscape:groupmode="layer"
     inkscape:label="Layer 1">
    <text
       sodipodi:linespacing="125%"
       id="text4698"
       y="181.61069"
       x="-454.56866"
       style="font-style:normal;font-weight:normal;font-size:40px;line-height:125%;font-family:sans-serif;letter-spacing:0px;word-spacing:0px;fill:#000000;fill-opacity:1;stroke:none;stroke-width:1px;stroke-linecap:butt;stroke-linejoin:miter;stroke-opacity:1"
       xml:space="preserve"><tspan
         y="181.61069"
         x="-454.56866"
         id="tspan4700"
         sodipodi:role="line" /></text>
    <text
       sodipodi:linespacing="125%"
       id="text4702"
       y="175.54977"
       x="-452.54834"
       style="font-style:normal;font-weight:normal;font-size:40px;line-height:125%;font-family:sans-serif;letter-spacing:0px;word-spacing:0px;fill:#000000;fill-opacity:1;stroke:none;stroke-width:1px;stroke-linecap:butt;stroke-linejoin:miter;stroke-opacity:1"
       xml:space="preserve"><tspan
         y="175.54977"
         x="-452.54834"
         id="tspan4704"
         sodipodi:role="line" /></text>
    <flowRoot
       style="fill:black;stroke:none;stroke-opacity:1;stroke-width:1px;stroke-linejoin:miter;stroke-linecap:butt;fill-opacity:1;font-family:sans-serif;font-style:normal;font-weight:normal;font-size:40px;line-height:125%;letter-spacing:0px;word-spacing:0px"
       id="flowRoot4738"
       xml:space="preserve"><flowRegion
         id="flowRegion4740"><rect
           y="-216.38942"
           x="-414.16254"
           height="68.690376"
           width="430.32498"
           id="rect4742" /></flowRegion><flowPara
         id="flowPara4744" /></flowRoot>    <path
       id="path4534"
       d="m -496.70508,433.60981 0,5 5,0 0,-5 m 0,5 5,0 0,-5 m 0,5 5,0 0,-5 m 0,5 5,0 0,-5 m 0,5 5,0 0,-5 m 0,5 5,0 0,-5 m 0,5 5,0 0,-5 m 0,5 5,0 0,-5 m 0,5 5,0 0,-5 m 0,5 5,0 0,-5 m 0,5 5,0 0,-5 m 0,5 5,0 0,-5 m 0,5 5,0 0,-5 m 0,5 5,0 0,-5 m 0,5 5,0 0,-5 m 0,5 5,0 0,-5 m 0,5 5,0 0,-5 m 0,5 5,0 0,-5 m 0,5 5,0 0,-5 m 0,5 5,0 0,-5 m 0,5 5,0 0,-5 m 0,5 5,0 0,-5 m 0,5 5,0 0,-5 m 0,5 5,0 0,-5 m 0,5 5,0 0,-5 m 0,5 5,0 0,-5 m 0,5 5,0 0,-5 m 0,5 5,0 0,-5 m 0,5 5,0 0,-5 m 0,5 5,0 0,-5 m 0,5 5,0 0,-5 m 0,5 5,0 0,-5 m 0,5 5,0 0,-5 m 0,5 5,0 0,-5 m 0,5 5,0 0,-5 m 0,5 5,0 0,-5 m 0,5 5,0 0,-5 m 0,5 5,0 0,-5 m 0,5 5,0 0,-5 m 0,5 5,0 0,-5 m 0,5 5,0 0,-5 m 0,5 5,0 0,-5 m 0,5 5,0 0,-5 m 0,5 5,0 0,-5 m 0,5 5,0 0,-5 m 0,5 5,0 0,-5 m 0,5 5,0 0,-5 m 0,5 5,0 0,-5 m 0,5 5,0 0,-5 m 0,5 5,0 0,-5 m 0,5 5,0 0,-5 m 0,5 5,0 0,-5 m 0,5 5,0 0,-5 m 0,5 5,0 0,-5 m 0,5 5,0 0,-5 m 0,5 5,0 0,-5 m 0,5 5,0 0,-5 m 0,5 5,0 0,-5 m 0,5 5,0 0,-5 m 0,5 5,0 0,-5 m 0,5 5,0 0,-5 m 0,5 5,0 0,-5 m 0,5 5,0 0,-5 m 0,5 5,0 0,-5 m 0,5 5,0 0,-5 m 0,5 5,0 0,-5 m 0,5 5,0 0,-5 m 0,5 5,0 0,-5 m 0,5 5,0 0,-5 m 0,5 5,0 0,-5 m 0,5 5,0 0,-5 m 0,5 5,0 0,-5 m 0,5 5,0 0,-5 m 0,5 5,0 0,-5 m 0,5 5,0 0,-5 m 0,5 5,0 0,-5 m 0,5 5,0 0,-5 m 0,5 5,0 0,-5 m 0,5 5,0 0,-5 m 0,5 5.000001,0 0,-5 m 0,5 5,0 0,-5 m 0,5 5.000002,0 0,-5 m 0,5 5,0 0,-5 m 0,5 5,0 0,-5 m 0,5 5,0 0,-5 m 0,5 5,0 0,-5 m 0,5 5,0 0,-5 m 0,5 5,0 0,-5 m 0,5 5,0 0,-5 m 0,5 5,0 0,-5 m 0,5 5,0 0,-5 m 0,5 5,0 0,-5 m 0,5 5,0 0,-5 m 0,5 5,0 0,-5 m 0,5 5,0 0,-5 m 0,5 5,0 0,-5 m 0,5 5,0 0,-5 m 0,5 4.9999995,0 0,-5 m 0,5 5,0 0,-5 m 0,5 4.9999998,0 0,-5"
       style="fill:none;fill-opacity:1;stroke:#000000;stroke-width:1;stroke-linecap:butt;stroke-linejoin:miter;stroke-opacity:1"
       inkscape:connector-curvature="0" />
    <text
       xml:space="preserve"
       style="font-style:normal;font-weight:normal;font-size:40px;line-height:125%;font-family:sans-serif;letter-spacing:0px;word-spacing:0px;fill:#000000;fill-opacity:1;stroke:none;stroke-width:1px;stroke-linecap:butt;stroke-linejoin:miter;stroke-opacity:1"
       x="-337.39096"
       y="455.36203"
       id="text4575"
       sodipodi:linespacing="125%"><tspan
         sodipodi:role="line"
         x="-337.39096"
         y="455.36203"
         id="tspan4579"
         style="font-size:20px">10 m (100*0.1m)</tspan></text>
    <rect
       style="opacity:0.3260002;fill:#ff0000;fill-opacity:1;fill-rule:evenodd;stroke:none;stroke-width:2.0999999;stroke-linecap:butt;stroke-linejoin:round;stroke-miterlimit:4;stroke-dasharray:none;stroke-dashoffset:0;stroke-opacity:1"
       id="rect4608"
       width="307.08636"
       height="314.15744"
       x="-394.96967"
       y="109.88985"
       ry="5.6918302" />
    <rect
       style="opacity:0.3260002;fill:#00ff00;fill-opacity:1;fill-rule:evenodd;stroke:none;stroke-width:2.0999999;stroke-linecap:butt;stroke-linejoin:round;stroke-miterlimit:4;stroke-dasharray:none;stroke-dashoffset:0;stroke-opacity:1"
       id="rect4610"
       width="111.11678"
       height="110.10663"
       x="-506.08643"
       y="211.91525"
       ry="5.6918302" />
    <rect
       style="opacity:0.3260002;fill:#00ff00;fill-opacity:1;fill-rule:evenodd;stroke:none;stroke-width:2.0999999;stroke-linecap:butt;stroke-linejoin:round;stroke-miterlimit:4;stroke-dasharray:none;stroke-dashoffset:0;stroke-opacity:1"
       id="rect4610-2"
       width="111.11678"
       height="110.10663"
       x="-87.883316"
       y="211.91525"
       ry="5.6918302" />
    <path
       style="opacity:0.77999998;fill:#000000;fill-opacity:1;fill-rule:evenodd;stroke:none;stroke-width:2.0999999;stroke-linecap:butt;stroke-linejoin:round;stroke-miterlimit:4;stroke-dasharray:none;stroke-dashoffset:0;stroke-opacity:1"
       d="m -346.10005,131.10283 c -3.01047,0 -5.43315,2.41837 -5.43315,5.42058 l 0,3.61137 c 0,3.00223 2.42268,5.41826 5.43315,5.41826 l 225.16668,0 -40.42063,146.95146 c -0.79638,2.89526 0.90021,5.86509 3.80344,6.65929 l 3.49525,0.95698 c 2.90323,0.7942 5.88122,-0.89774 6.67761,-3.793 l 42.8045,-155.62252 c 0.77833,-2.82956 -0.83114,-5.71555 -3.6143,-6.58711 -0.88767,-1.78316 -2.71055,-3.01531 -4.84946,-3.01531 l -233.06309,0 z"
       id="rect4627"
       inkscape:connector-curvature="0" />
    <path
       inkscape:connector-curvature="0"
       style="opacity:0.77999998;fill:#000000;fill-opacity:1;fill-rule:evenodd;stroke:none;stroke-width:2.0999999;stroke-linecap:butt;stroke-linejoin:round;stroke-miterlimit:4;stroke-dasharray:none;stroke-dashoffset:0;stroke-opacity:1"
       d="m -123.63246,403.20737 c 3.15813,0.004 5.70256,-2.46912 5.70621,-5.54229 l 0.004,-3.69673 c 0.004,-3.07318 -2.53492,-5.54915 -5.69305,-5.55271 l -236.2097,-0.26549 42.58157,-150.37698 c 0.83896,-2.96275 -0.93724,-6.00477 -3.98189,-6.82116 l -3.66551,-0.98372 c -3.04463,-0.81639 -6.17076,0.91203 -7.00971,3.87478 l -45.0929,159.25014 c -0.81992,2.89552 0.86496,5.85162 3.78358,6.74705 0.92903,1.82635 2.83983,3.08977 5.08362,3.0923 l 244.49339,0.27481 z"
       id="rect4627-6" />
    <text
       xml:space="preserve"
       style="font-style:normal;font-weight:normal;font-size:40px;line-height:125%;font-family:sans-serif;letter-spacing:0px;word-spacing:0px;fill:#000000;fill-opacity:1;stroke:none;stroke-width:1px;stroke-linecap:butt;stroke-linejoin:miter;stroke-opacity:1"
       x="-278.80209"
       y="205.85435"
       id="text4687"
       sodipodi:linespacing="125%"><tspan
         sodipodi:role="line"
         id="tspan4689"
         x="-278.80209"
         y="205.85435">O</tspan></text>
    <text
       xml:space="preserve"
       style="font-style:normal;font-weight:normal;font-size:40px;line-height:125%;font-family:sans-serif;letter-spacing:0px;word-spacing:0px;fill:#000000;fill-opacity:1;stroke:none;stroke-width:1px;stroke-linecap:butt;stroke-linejoin:miter;stroke-opacity:1"
       x="-288.90363"
       y="349.29602"
       id="text4691"
       sodipodi:linespacing="125%"><tspan
         sodipodi:role="line"
         id="tspan4693"
         x="-288.90363"
         y="349.29602">O</tspan></text>
    <text
       xml:space="preserve"
       style="font-style:normal;font-weight:normal;font-size:40px;line-height:125%;font-family:sans-serif;letter-spacing:0px;word-spacing:0px;fill:#000000;fill-opacity:1;stroke:none;stroke-width:1px;stroke-linecap:butt;stroke-linejoin:miter;stroke-opacity:1"
       x="-209.10158"
       y="272.52441"
       id="text4695"
       sodipodi:linespacing="125%"><tspan
         sodipodi:role="line"
         id="tspan4697"
         x="-209.10158"
         y="272.52441">O</tspan></text>
    <text
       xml:space="preserve"
       style="font-style:normal;font-weight:normal;font-size:40px;line-height:125%;font-family:sans-serif;letter-spacing:0px;word-spacing:0px;fill:#000000;fill-opacity:1;stroke:none;stroke-width:1px;stroke-linecap:butt;stroke-linejoin:miter;stroke-opacity:1"
       x="-270.72089"
       y="267.47366"
       id="text4699"
       sodipodi:linespacing="125%"><tspan
         sodipodi:role="line"
         id="tspan4701"
         x="-270.72089"
         y="267.47366">O</tspan></text>
    <text
       xml:space="preserve"
       style="font-style:normal;font-weight:normal;font-size:40px;line-height:125%;font-family:sans-serif;letter-spacing:0px;word-spacing:0px;fill:#000000;fill-opacity:1;stroke:none;stroke-width:1px;stroke-linecap:butt;stroke-linejoin:miter;stroke-opacity:1"
       x="-222.23357"
       y="353.33661"
       id="text4703"
       sodipodi:linespacing="125%"><tspan
         sodipodi:role="line"
         id="tspan4705"
         x="-222.23357"
         y="353.33661">O</tspan></text>
    <text
       xml:space="preserve"
       style="font-style:normal;font-weight:normal;font-size:40px;line-height:125%;font-family:sans-serif;letter-spacing:0px;word-spacing:0px;fill:#000000;fill-opacity:1;stroke:none;stroke-width:1px;stroke-linecap:butt;stroke-linejoin:miter;stroke-opacity:1"
       x="-191.92899"
       y="191.7122"
       id="text4707"
       sodipodi:linespacing="125%"><tspan
         sodipodi:role="line"
         id="tspan4709"
         x="-191.92899"
         y="191.7122">O</tspan></text>
    <text
       xml:space="preserve"
       style="font-style:normal;font-weight:normal;font-size:40px;line-height:125%;font-family:sans-serif;letter-spacing:0px;word-spacing:0px;fill:#000000;fill-opacity:1;stroke:none;stroke-width:1px;stroke-linecap:butt;stroke-linejoin:miter;stroke-opacity:1"
       x="-233.34525"
       y="226.0574"
       id="text4711"
       sodipodi:linespacing="125%"><tspan
         sodipodi:role="line"
         id="tspan4713"
         x="-233.34525"
         y="226.0574">O</tspan></text>
    <text
       xml:space="preserve"
       style="font-style:normal;font-weight:normal;font-size:40px;line-height:125%;font-family:sans-serif;letter-spacing:0px;word-spacing:0px;fill:#000000;fill-opacity:1;stroke:none;stroke-width:1px;stroke-linecap:butt;stroke-linejoin:miter;stroke-opacity:1"
       x="-287.89349"
       y="293.73761"
       id="text4715"
       sodipodi:linespacing="125%"><tspan
         sodipodi:role="line"
         id="tspan4717"
         x="-287.89349"
         y="293.73761">O</tspan></text>
    <text
       xml:space="preserve"
       style="font-style:normal;font-weight:normal;font-size:40px;line-height:125%;font-family:sans-serif;letter-spacing:0px;word-spacing:0px;fill:#000000;fill-opacity:1;stroke:none;stroke-width:1px;stroke-linecap:butt;stroke-linejoin:miter;stroke-opacity:1"
       x="-239.40614"
       y="313.94067"
       id="text4719"
       sodipodi:linespacing="125%"><tspan
         sodipodi:role="line"
         id="tspan4721"
         x="-239.40614"
         y="313.94067">O</tspan></text>
    <text
       xml:space="preserve"
       style="font-style:normal;font-variant:normal;font-weight:normal;font-stretch:normal;font-size:17.5px;line-height:125%;font-family:Arial;-inkscape-font-specification:Arial;letter-spacing:0px;word-spacing:0px;fill:#000000;fill-opacity:1;stroke:none;stroke-width:1px;stroke-linecap:butt;stroke-linejoin:miter;stroke-opacity:1"
       x="-482.8364"
       y="260.66241"
       id="text4723"
       sodipodi:linespacing="125%"><tspan
         sodipodi:role="line"
         id="tspan4725"
         x="-482.8364"
         y="260.66241">Spawn</tspan><tspan
         sodipodi:role="line"
         x="-482.8364"
         y="282.53741"
         id="tspan4727">equipo 1</tspan></text>
    <text
       xml:space="preserve"
       style="font-style:normal;font-variant:normal;font-weight:normal;font-stretch:normal;font-size:17.5px;line-height:125%;font-family:Arial;-inkscape-font-specification:Arial;letter-spacing:0px;word-spacing:0px;fill:#000000;fill-opacity:1;stroke:none;stroke-width:1px;stroke-linecap:butt;stroke-linejoin:miter;stroke-opacity:1"
       x="-65.77829"
       y="260.66241"
       id="text4723-3"
       sodipodi:linespacing="125%"><tspan
         sodipodi:role="line"
         id="tspan4725-7"
         x="-65.77829"
         y="260.66241">Spawn</tspan><tspan
         sodipodi:role="line"
         x="-65.77829"
         y="282.53741"
         id="tspan4727-7">equipo 2</tspan></text>
    <text
       xml:space="preserve"
       style="font-style:normal;font-weight:normal;font-size:40px;line-height:125%;font-family:sans-serif;letter-spacing:0px;word-spacing:0px;fill:#000000;fill-opacity:1;stroke:none;stroke-width:1px;stroke-linecap:butt;stroke-linejoin:miter;stroke-opacity:1"
       x="-320.21835"
       y="202.82388"
       id="text4750"
       sodipodi:linespacing="125%"><tspan
         sodipodi:role="line"
         id="tspan4752"
         x="-320.21835"
         y="202.82388">x</tspan></text>
    <text
       xml:space="preserve"
       style="font-style:normal;font-weight:normal;font-size:40px;line-height:125%;font-family:sans-serif;letter-spacing:0px;word-spacing:0px;fill:#000000;fill-opacity:1;stroke:none;stroke-width:1px;stroke-linecap:butt;stroke-linejoin:miter;stroke-opacity:1"
       x="-166.67517"
       y="359.39755"
       id="text4754"
       sodipodi:linespacing="125%"><tspan
         sodipodi:role="line"
         id="tspan4756"
         x="-166.67517"
         y="359.39755">x</tspan></text>
  </g>
</svg>
